<svg width="339" height="81" viewBox="0 0 339 81" fill="none" xmlns="http://www.w3.org/2000/svg">
<rect width="339" height="81" fill="#ECECEC"/>
<circle cx="36.5" cy="40.5" r="9.5" fill="#7EB693"/>
<circle cx="36.5" cy="40.5" r="5.5" fill="#ECECEC"/>
<path d="M60.5 32.7324V47H58.1465V35.5254L54.6602 36.707V34.7637L60.2168 32.7324H60.5ZM74.709 38.6992V41.0234C74.709 42.1367 74.5983 43.0872 74.377 43.875C74.1621 44.6562 73.8496 45.291 73.4395 45.7793C73.0293 46.2676 72.5378 46.6257 71.9648 46.8535C71.3984 47.0814 70.7637 47.1953 70.0605 47.1953C69.5007 47.1953 68.9798 47.1237 68.498 46.9805C68.0228 46.8372 67.5931 46.6126 67.209 46.3066C66.8249 46.0007 66.4961 45.6068 66.2227 45.125C65.9557 44.6367 65.7474 44.054 65.5977 43.377C65.4544 42.6999 65.3828 41.9154 65.3828 41.0234V38.6992C65.3828 37.5794 65.4935 36.6354 65.7148 35.8672C65.9362 35.0924 66.252 34.4642 66.6621 33.9824C67.0723 33.4941 67.5605 33.1393 68.127 32.918C68.6999 32.6966 69.3379 32.5859 70.041 32.5859C70.6074 32.5859 71.1283 32.6576 71.6035 32.8008C72.0853 32.9375 72.515 33.1556 72.8926 33.4551C73.2767 33.7546 73.6022 34.1452 73.8691 34.627C74.1426 35.1022 74.3509 35.6784 74.4941 36.3555C74.6374 37.026 74.709 37.8073 74.709 38.6992ZM72.3555 41.3555V38.3477C72.3555 37.7812 72.3229 37.2832 72.2578 36.8535C72.1927 36.4173 72.0951 36.0495 71.9648 35.75C71.8411 35.444 71.6849 35.1966 71.4961 35.0078C71.3073 34.8125 71.0924 34.6725 70.8516 34.5879C70.6107 34.4967 70.3405 34.4512 70.041 34.4512C69.6764 34.4512 69.3509 34.5228 69.0645 34.666C68.778 34.8027 68.5371 35.0241 68.3418 35.3301C68.1465 35.6361 67.9967 36.0397 67.8926 36.541C67.7949 37.0358 67.7461 37.638 67.7461 38.3477V41.3555C67.7461 41.9284 67.7786 42.4329 67.8438 42.8691C67.9089 43.3053 68.0065 43.6797 68.1367 43.9922C68.2669 44.2982 68.4232 44.5521 68.6055 44.7539C68.7943 44.9492 69.0091 45.0924 69.25 45.1836C69.4974 45.2747 69.7676 45.3203 70.0605 45.3203C70.4316 45.3203 70.7604 45.2487 71.0469 45.1055C71.3333 44.9622 71.5742 44.7344 71.7695 44.4219C71.9648 44.1029 72.1113 43.6895 72.209 43.1816C72.3066 42.6738 72.3555 42.0651 72.3555 41.3555ZM86.0762 38.6992V41.0234C86.0762 42.1367 85.9655 43.0872 85.7441 43.875C85.5293 44.6562 85.2168 45.291 84.8066 45.7793C84.3965 46.2676 83.9049 46.6257 83.332 46.8535C82.7656 47.0814 82.1309 47.1953 81.4277 47.1953C80.8678 47.1953 80.347 47.1237 79.8652 46.9805C79.39 46.8372 78.9603 46.6126 78.5762 46.3066C78.1921 46.0007 77.8633 45.6068 77.5898 45.125C77.3229 44.6367 77.1146 44.054 76.9648 43.377C76.8216 42.6999 76.75 41.9154 76.75 41.0234V38.6992C76.75 37.5794 76.8607 36.6354 77.082 35.8672C77.3034 35.0924 77.6191 34.4642 78.0293 33.9824C78.4395 33.4941 78.9277 33.1393 79.4941 32.918C80.0671 32.6966 80.7051 32.5859 81.4082 32.5859C81.9746 32.5859 82.4954 32.6576 82.9707 32.8008C83.4525 32.9375 83.8822 33.1556 84.2598 33.4551C84.6439 33.7546 84.9694 34.1452 85.2363 34.627C85.5098 35.1022 85.7181 35.6784 85.8613 36.3555C86.0046 37.026 86.0762 37.8073 86.0762 38.6992ZM83.7227 41.3555V38.3477C83.7227 37.7812 83.6901 37.2832 83.625 36.8535C83.5599 36.4173 83.4622 36.0495 83.332 35.75C83.2083 35.444 83.0521 35.1966 82.8633 35.0078C82.6745 34.8125 82.4596 34.6725 82.2188 34.5879C81.9779 34.4967 81.7077 34.4512 81.4082 34.4512C81.0436 34.4512 80.7181 34.5228 80.4316 34.666C80.1452 34.8027 79.9043 35.0241 79.709 35.3301C79.5137 35.6361 79.3639 36.0397 79.2598 36.541C79.1621 37.0358 79.1133 37.638 79.1133 38.3477V41.3555C79.1133 41.9284 79.1458 42.4329 79.2109 42.8691C79.276 43.3053 79.3737 43.6797 79.5039 43.9922C79.6341 44.2982 79.7904 44.5521 79.9727 44.7539C80.1615 44.9492 80.3763 45.0924 80.6172 45.1836C80.8646 45.2747 81.1348 45.3203 81.4277 45.3203C81.7988 45.3203 82.1276 45.2487 82.4141 45.1055C82.7005 44.9622 82.9414 44.7344 83.1367 44.4219C83.332 44.1029 83.4785 43.6895 83.5762 43.1816C83.6738 42.6738 83.7227 42.0651 83.7227 41.3555ZM88.0781 36.2676V35.5156C88.0781 34.9753 88.1953 34.4837 88.4297 34.041C88.6641 33.5983 89.0059 33.2435 89.4551 32.9766C89.9043 32.7096 90.4447 32.5762 91.0762 32.5762C91.7272 32.5762 92.2741 32.7096 92.7168 32.9766C93.166 33.2435 93.5078 33.5983 93.7422 34.041C93.9766 34.4837 94.0938 34.9753 94.0938 35.5156V36.2676C94.0938 36.7949 93.9766 37.2799 93.7422 37.7227C93.5143 38.1654 93.1758 38.5202 92.7266 38.7871C92.2839 39.054 91.7402 39.1875 91.0957 39.1875C90.4577 39.1875 89.9108 39.054 89.4551 38.7871C89.0059 38.5202 88.6641 38.1654 88.4297 37.7227C88.1953 37.2799 88.0781 36.7949 88.0781 36.2676ZM89.709 35.5156V36.2676C89.709 36.528 89.7578 36.7754 89.8555 37.0098C89.9596 37.2441 90.1159 37.4329 90.3242 37.5762C90.5326 37.7194 90.7897 37.791 91.0957 37.791C91.4082 37.791 91.6621 37.7194 91.8574 37.5762C92.0592 37.4329 92.209 37.2441 92.3066 37.0098C92.4043 36.7754 92.4531 36.528 92.4531 36.2676V35.5156C92.4531 35.2487 92.401 34.998 92.2969 34.7637C92.1992 34.5228 92.0495 34.3307 91.8477 34.1875C91.6458 34.0443 91.3887 33.9727 91.0762 33.9727C90.7767 33.9727 90.5228 34.0443 90.3145 34.1875C90.1126 34.3307 89.9596 34.5228 89.8555 34.7637C89.7578 34.998 89.709 35.2487 89.709 35.5156ZM94.9336 44.2754V43.5137C94.9336 42.9798 95.0508 42.4915 95.2852 42.0488C95.526 41.6061 95.8711 41.2513 96.3203 40.9844C96.7695 40.7174 97.3099 40.584 97.9414 40.584C98.5924 40.584 99.1393 40.7174 99.582 40.9844C100.031 41.2513 100.37 41.6061 100.598 42.0488C100.832 42.4915 100.949 42.9798 100.949 43.5137V44.2754C100.949 44.8092 100.832 45.2975 100.598 45.7402C100.37 46.1829 100.035 46.5378 99.5918 46.8047C99.1491 47.0716 98.6087 47.2051 97.9707 47.2051C97.3262 47.2051 96.776 47.0716 96.3203 46.8047C95.8711 46.5378 95.526 46.1829 95.2852 45.7402C95.0508 45.2975 94.9336 44.8092 94.9336 44.2754ZM96.5742 43.5137V44.2754C96.5742 44.5358 96.6263 44.7832 96.7305 45.0176C96.8411 45.252 97.0007 45.444 97.209 45.5938C97.4173 45.737 97.668 45.8086 97.9609 45.8086C98.293 45.8086 98.5599 45.737 98.7617 45.5938C98.9635 45.444 99.1068 45.2552 99.1914 45.0273C99.2826 44.793 99.3281 44.5423 99.3281 44.2754V43.5137C99.3281 43.2467 99.276 42.9961 99.1719 42.7617C99.0742 42.5273 98.9212 42.3385 98.7129 42.1953C98.5111 42.0521 98.2539 41.9805 97.9414 41.9805C97.6354 41.9805 97.3815 42.0521 97.1797 42.1953C96.9779 42.3385 96.8249 42.5273 96.7207 42.7617C96.623 42.9961 96.5742 43.2467 96.5742 43.5137ZM98.5273 34.8125L91.584 45.9258L90.3828 45.2324L97.3262 34.1191L98.5273 34.8125ZM119.533 32.7812V47H117.082L110.705 36.8145V47H108.254V32.7812H110.705L117.102 42.9863V32.7812H119.533ZM128.176 44.8809V39.8418C128.176 39.4642 128.107 39.1387 127.971 38.8652C127.834 38.5918 127.626 38.3802 127.346 38.2305C127.072 38.0807 126.727 38.0059 126.311 38.0059C125.926 38.0059 125.594 38.071 125.314 38.2012C125.035 38.3314 124.816 38.5072 124.66 38.7285C124.504 38.9499 124.426 39.2005 124.426 39.4805H122.082C122.082 39.0638 122.183 38.6602 122.385 38.2695C122.587 37.8789 122.88 37.5306 123.264 37.2246C123.648 36.9186 124.107 36.6777 124.641 36.502C125.174 36.3262 125.773 36.2383 126.438 36.2383C127.232 36.2383 127.935 36.3717 128.547 36.6387C129.165 36.9056 129.65 37.3092 130.002 37.8496C130.36 38.3835 130.539 39.054 130.539 39.8613V44.5586C130.539 45.0404 130.572 45.4733 130.637 45.8574C130.708 46.235 130.809 46.5638 130.939 46.8438V47H128.527C128.417 46.7461 128.329 46.4238 128.264 46.0332C128.205 45.6361 128.176 45.252 128.176 44.8809ZM128.518 40.5742L128.537 42.0293H126.848C126.411 42.0293 126.027 42.0716 125.695 42.1562C125.363 42.2344 125.087 42.3516 124.865 42.5078C124.644 42.6641 124.478 42.8529 124.367 43.0742C124.257 43.2956 124.201 43.5462 124.201 43.8262C124.201 44.1061 124.266 44.3633 124.396 44.5977C124.527 44.8255 124.715 45.0046 124.963 45.1348C125.217 45.265 125.523 45.3301 125.881 45.3301C126.363 45.3301 126.783 45.2324 127.141 45.0371C127.505 44.8353 127.792 44.5911 128 44.3047C128.208 44.0117 128.319 43.735 128.332 43.4746L129.094 44.5195C129.016 44.7865 128.882 45.0729 128.693 45.3789C128.505 45.6849 128.257 45.9779 127.951 46.2578C127.652 46.5312 127.29 46.7559 126.867 46.9316C126.451 47.1074 125.969 47.1953 125.422 47.1953C124.732 47.1953 124.117 47.0586 123.576 46.7852C123.036 46.5052 122.613 46.1309 122.307 45.6621C122.001 45.1868 121.848 44.6497 121.848 44.0508C121.848 43.4909 121.952 42.9961 122.16 42.5664C122.375 42.1302 122.688 41.7656 123.098 41.4727C123.514 41.1797 124.022 40.9583 124.621 40.8086C125.22 40.6523 125.904 40.5742 126.672 40.5742H128.518ZM137.844 36.4336V38.1523H131.887V36.4336H137.844ZM133.605 33.8457H135.959V44.0801C135.959 44.4056 136.005 44.6562 136.096 44.832C136.193 45.0013 136.327 45.1152 136.496 45.1738C136.665 45.2324 136.864 45.2617 137.092 45.2617C137.255 45.2617 137.411 45.252 137.561 45.2324C137.71 45.2129 137.831 45.1934 137.922 45.1738L137.932 46.9707C137.736 47.0293 137.508 47.0814 137.248 47.127C136.994 47.1725 136.701 47.1953 136.369 47.1953C135.829 47.1953 135.35 47.1009 134.934 46.9121C134.517 46.7168 134.191 46.401 133.957 45.9648C133.723 45.5286 133.605 44.9492 133.605 44.2266V33.8457ZM146.018 44.5098V36.4336H148.381V47H146.154L146.018 44.5098ZM146.35 42.3125L147.141 42.293C147.141 43.0026 147.062 43.6569 146.906 44.2559C146.75 44.8483 146.509 45.3659 146.184 45.8086C145.858 46.2448 145.441 46.5866 144.934 46.834C144.426 47.0749 143.817 47.1953 143.107 47.1953C142.593 47.1953 142.121 47.1204 141.691 46.9707C141.262 46.821 140.891 46.5898 140.578 46.2773C140.272 45.9648 140.035 45.5579 139.865 45.0566C139.696 44.5553 139.611 43.9564 139.611 43.2598V36.4336H141.965V43.2793C141.965 43.6634 142.01 43.9857 142.102 44.2461C142.193 44.5 142.316 44.7051 142.473 44.8613C142.629 45.0176 142.811 45.1283 143.02 45.1934C143.228 45.2585 143.449 45.291 143.684 45.291C144.354 45.291 144.882 45.1608 145.266 44.9004C145.656 44.6335 145.933 44.2754 146.096 43.8262C146.265 43.377 146.35 42.8724 146.35 42.3125ZM153.156 38.4453V47H150.803V36.4336H153.049L153.156 38.4453ZM156.389 36.3652L156.369 38.5527C156.226 38.5267 156.07 38.5072 155.9 38.4941C155.738 38.4811 155.575 38.4746 155.412 38.4746C155.008 38.4746 154.654 38.5332 154.348 38.6504C154.042 38.7611 153.785 38.9238 153.576 39.1387C153.374 39.347 153.218 39.6009 153.107 39.9004C152.997 40.1999 152.932 40.5352 152.912 40.9062L152.375 40.9453C152.375 40.2812 152.44 39.666 152.57 39.0996C152.701 38.5332 152.896 38.0352 153.156 37.6055C153.423 37.1758 153.755 36.8405 154.152 36.5996C154.556 36.3587 155.021 36.2383 155.549 36.2383C155.692 36.2383 155.845 36.2513 156.008 36.2773C156.177 36.3034 156.304 36.3327 156.389 36.3652ZM163.469 44.8809V39.8418C163.469 39.4642 163.4 39.1387 163.264 38.8652C163.127 38.5918 162.919 38.3802 162.639 38.2305C162.365 38.0807 162.02 38.0059 161.604 38.0059C161.219 38.0059 160.887 38.071 160.607 38.2012C160.327 38.3314 160.109 38.5072 159.953 38.7285C159.797 38.9499 159.719 39.2005 159.719 39.4805H157.375C157.375 39.0638 157.476 38.6602 157.678 38.2695C157.88 37.8789 158.173 37.5306 158.557 37.2246C158.941 36.9186 159.4 36.6777 159.934 36.502C160.467 36.3262 161.066 36.2383 161.73 36.2383C162.525 36.2383 163.228 36.3717 163.84 36.6387C164.458 36.9056 164.943 37.3092 165.295 37.8496C165.653 38.3835 165.832 39.054 165.832 39.8613V44.5586C165.832 45.0404 165.865 45.4733 165.93 45.8574C166.001 46.235 166.102 46.5638 166.232 46.8438V47H163.82C163.71 46.7461 163.622 46.4238 163.557 46.0332C163.498 45.6361 163.469 45.252 163.469 44.8809ZM163.811 40.5742L163.83 42.0293H162.141C161.704 42.0293 161.32 42.0716 160.988 42.1562C160.656 42.2344 160.38 42.3516 160.158 42.5078C159.937 42.6641 159.771 42.8529 159.66 43.0742C159.549 43.2956 159.494 43.5462 159.494 43.8262C159.494 44.1061 159.559 44.3633 159.689 44.5977C159.82 44.8255 160.008 45.0046 160.256 45.1348C160.51 45.265 160.816 45.3301 161.174 45.3301C161.656 45.3301 162.076 45.2324 162.434 45.0371C162.798 44.8353 163.085 44.5911 163.293 44.3047C163.501 44.0117 163.612 43.735 163.625 43.4746L164.387 44.5195C164.309 44.7865 164.175 45.0729 163.986 45.3789C163.798 45.6849 163.55 45.9779 163.244 46.2578C162.945 46.5312 162.583 46.7559 162.16 46.9316C161.743 47.1074 161.262 47.1953 160.715 47.1953C160.025 47.1953 159.41 47.0586 158.869 46.7852C158.329 46.5052 157.906 46.1309 157.6 45.6621C157.294 45.1868 157.141 44.6497 157.141 44.0508C157.141 43.4909 157.245 42.9961 157.453 42.5664C157.668 42.1302 157.98 41.7656 158.391 41.4727C158.807 41.1797 159.315 40.9583 159.914 40.8086C160.513 40.6523 161.197 40.5742 161.965 40.5742H163.811ZM170.812 32V47H168.449V32H170.812ZM184.006 41.6973H180.305V39.7539H184.006C184.65 39.7539 185.171 39.6497 185.568 39.4414C185.965 39.2331 186.255 38.9466 186.438 38.582C186.626 38.2109 186.721 37.7878 186.721 37.3125C186.721 36.8633 186.626 36.4434 186.438 36.0527C186.255 35.6556 185.965 35.3366 185.568 35.0957C185.171 34.8548 184.65 34.7344 184.006 34.7344H181.057V47H178.605V32.7812H184.006C185.106 32.7812 186.04 32.9766 186.809 33.3672C187.583 33.7513 188.173 34.2852 188.576 34.9688C188.98 35.6458 189.182 36.4206 189.182 37.293C189.182 38.2109 188.98 38.9987 188.576 39.6562C188.173 40.3138 187.583 40.8184 186.809 41.1699C186.04 41.5215 185.106 41.6973 184.006 41.6973ZM193.508 38.4453V47H191.154V36.4336H193.4L193.508 38.4453ZM196.74 36.3652L196.721 38.5527C196.577 38.5267 196.421 38.5072 196.252 38.4941C196.089 38.4811 195.926 38.4746 195.764 38.4746C195.36 38.4746 195.005 38.5332 194.699 38.6504C194.393 38.7611 194.136 38.9238 193.928 39.1387C193.726 39.347 193.57 39.6009 193.459 39.9004C193.348 40.1999 193.283 40.5352 193.264 40.9062L192.727 40.9453C192.727 40.2812 192.792 39.666 192.922 39.0996C193.052 38.5332 193.247 38.0352 193.508 37.6055C193.775 37.1758 194.107 36.8405 194.504 36.5996C194.908 36.3587 195.373 36.2383 195.9 36.2383C196.044 36.2383 196.197 36.2513 196.359 36.2773C196.529 36.3034 196.656 36.3327 196.74 36.3652ZM197.512 41.834V41.6094C197.512 40.8477 197.622 40.1413 197.844 39.4902C198.065 38.8327 198.384 38.263 198.801 37.7812C199.224 37.293 199.738 36.9154 200.344 36.6484C200.956 36.375 201.646 36.2383 202.414 36.2383C203.189 36.2383 203.879 36.375 204.484 36.6484C205.096 36.9154 205.614 37.293 206.037 37.7812C206.46 38.263 206.783 38.8327 207.004 39.4902C207.225 40.1413 207.336 40.8477 207.336 41.6094V41.834C207.336 42.5957 207.225 43.3021 207.004 43.9531C206.783 44.6042 206.46 45.1738 206.037 45.6621C205.614 46.1439 205.1 46.5215 204.494 46.7949C203.889 47.0618 203.202 47.1953 202.434 47.1953C201.659 47.1953 200.965 47.0618 200.354 46.7949C199.748 46.5215 199.234 46.1439 198.811 45.6621C198.387 45.1738 198.065 44.6042 197.844 43.9531C197.622 43.3021 197.512 42.5957 197.512 41.834ZM199.865 41.6094V41.834C199.865 42.3092 199.914 42.7585 200.012 43.1816C200.109 43.6048 200.262 43.9759 200.471 44.2949C200.679 44.6139 200.946 44.8646 201.271 45.0469C201.597 45.2292 201.984 45.3203 202.434 45.3203C202.87 45.3203 203.247 45.2292 203.566 45.0469C203.892 44.8646 204.159 44.6139 204.367 44.2949C204.576 43.9759 204.729 43.6048 204.826 43.1816C204.93 42.7585 204.982 42.3092 204.982 41.834V41.6094C204.982 41.1406 204.93 40.6979 204.826 40.2812C204.729 39.8581 204.572 39.4837 204.357 39.1582C204.149 38.8327 203.882 38.5788 203.557 38.3965C203.238 38.2077 202.857 38.1133 202.414 38.1133C201.971 38.1133 201.587 38.2077 201.262 38.3965C200.943 38.5788 200.679 38.8327 200.471 39.1582C200.262 39.4837 200.109 39.8581 200.012 40.2812C199.914 40.6979 199.865 41.1406 199.865 41.6094ZM215.754 44.8125V32H218.117V47H215.979L215.754 44.8125ZM208.879 41.834V41.6289C208.879 40.8281 208.973 40.099 209.162 39.4414C209.351 38.7773 209.624 38.2077 209.982 37.7324C210.34 37.2507 210.777 36.8828 211.291 36.6289C211.805 36.3685 212.385 36.2383 213.029 36.2383C213.667 36.2383 214.227 36.362 214.709 36.6094C215.191 36.8568 215.601 37.2116 215.939 37.6738C216.278 38.1296 216.548 38.6764 216.75 39.3145C216.952 39.946 217.095 40.6491 217.18 41.4238V42.0781C217.095 42.8333 216.952 43.5234 216.75 44.1484C216.548 44.7734 216.278 45.3138 215.939 45.7695C215.601 46.2253 215.188 46.5768 214.699 46.8242C214.217 47.0716 213.654 47.1953 213.01 47.1953C212.372 47.1953 211.796 47.0618 211.281 46.7949C210.773 46.528 210.34 46.1536 209.982 45.6719C209.624 45.1901 209.351 44.6237 209.162 43.9727C208.973 43.3151 208.879 42.6022 208.879 41.834ZM211.232 41.6289V41.834C211.232 42.3158 211.275 42.765 211.359 43.1816C211.451 43.5983 211.59 43.9661 211.779 44.2852C211.968 44.5977 212.212 44.8451 212.512 45.0273C212.818 45.2031 213.182 45.291 213.605 45.291C214.139 45.291 214.579 45.1738 214.924 44.9395C215.269 44.7051 215.539 44.3893 215.734 43.9922C215.936 43.5885 216.073 43.1393 216.145 42.6445V40.877C216.105 40.4928 216.024 40.1348 215.9 39.8027C215.783 39.4707 215.624 39.181 215.422 38.9336C215.22 38.6797 214.969 38.4844 214.67 38.3477C214.377 38.2044 214.029 38.1328 213.625 38.1328C213.195 38.1328 212.831 38.224 212.531 38.4062C212.232 38.5885 211.984 38.8392 211.789 39.1582C211.6 39.4772 211.46 39.8483 211.369 40.2715C211.278 40.6947 211.232 41.1471 211.232 41.6289ZM226.936 44.5098V36.4336H229.299V47H227.072L226.936 44.5098ZM227.268 42.3125L228.059 42.293C228.059 43.0026 227.98 43.6569 227.824 44.2559C227.668 44.8483 227.427 45.3659 227.102 45.8086C226.776 46.2448 226.359 46.5866 225.852 46.834C225.344 47.0749 224.735 47.1953 224.025 47.1953C223.511 47.1953 223.039 47.1204 222.609 46.9707C222.18 46.821 221.809 46.5898 221.496 46.2773C221.19 45.9648 220.952 45.5579 220.783 45.0566C220.614 44.5553 220.529 43.9564 220.529 43.2598V36.4336H222.883V43.2793C222.883 43.6634 222.928 43.9857 223.02 44.2461C223.111 44.5 223.234 44.7051 223.391 44.8613C223.547 45.0176 223.729 45.1283 223.938 45.1934C224.146 45.2585 224.367 45.291 224.602 45.291C225.272 45.291 225.799 45.1608 226.184 44.9004C226.574 44.6335 226.851 44.2754 227.014 43.8262C227.183 43.377 227.268 42.8724 227.268 42.3125ZM236.027 45.3203C236.411 45.3203 236.757 45.2454 237.062 45.0957C237.375 44.9395 237.626 44.7246 237.814 44.4512C238.01 44.1777 238.117 43.862 238.137 43.5039H240.354C240.34 44.1875 240.139 44.8092 239.748 45.3691C239.357 45.929 238.84 46.375 238.195 46.707C237.551 47.0326 236.838 47.1953 236.057 47.1953C235.249 47.1953 234.546 47.0586 233.947 46.7852C233.348 46.5052 232.85 46.1211 232.453 45.6328C232.056 45.1445 231.757 44.5814 231.555 43.9434C231.359 43.3053 231.262 42.6217 231.262 41.8926V41.5508C231.262 40.8216 231.359 40.138 231.555 39.5C231.757 38.8555 232.056 38.2891 232.453 37.8008C232.85 37.3125 233.348 36.9316 233.947 36.6582C234.546 36.3783 235.246 36.2383 236.047 36.2383C236.893 36.2383 237.635 36.4076 238.273 36.7461C238.911 37.0781 239.413 37.5436 239.777 38.1426C240.148 38.735 240.34 39.4251 240.354 40.2129H238.137C238.117 39.8223 238.02 39.4707 237.844 39.1582C237.674 38.8392 237.434 38.5853 237.121 38.3965C236.815 38.2077 236.447 38.1133 236.018 38.1133C235.542 38.1133 235.148 38.2109 234.836 38.4062C234.523 38.5951 234.279 38.8555 234.104 39.1875C233.928 39.513 233.801 39.8809 233.723 40.291C233.651 40.6947 233.615 41.1146 233.615 41.5508V41.8926C233.615 42.3288 233.651 42.752 233.723 43.1621C233.794 43.5723 233.918 43.9401 234.094 44.2656C234.276 44.5846 234.523 44.8418 234.836 45.0371C235.148 45.2259 235.546 45.3203 236.027 45.3203ZM247.004 36.4336V38.1523H241.047V36.4336H247.004ZM242.766 33.8457H245.119V44.0801C245.119 44.4056 245.165 44.6562 245.256 44.832C245.354 45.0013 245.487 45.1152 245.656 45.1738C245.826 45.2324 246.024 45.2617 246.252 45.2617C246.415 45.2617 246.571 45.252 246.721 45.2324C246.87 45.2129 246.991 45.1934 247.082 45.1738L247.092 46.9707C246.896 47.0293 246.669 47.0814 246.408 47.127C246.154 47.1725 245.861 47.1953 245.529 47.1953C244.989 47.1953 244.51 47.1009 244.094 46.9121C243.677 46.7168 243.352 46.401 243.117 45.9648C242.883 45.5286 242.766 44.9492 242.766 44.2266V33.8457Z" fill="#274C5B"/>
</svg>
