<svg width="334" height="81" viewBox="0 0 334 81" fill="none" xmlns="http://www.w3.org/2000/svg">
<rect width="334" height="81" fill="#ECECEC"/>
<circle cx="36.5" cy="40.5" r="9.5" fill="#7EB693"/>
<circle cx="36.5" cy="40.5" r="5.5" fill="#ECECEC"/>
<path d="M62.043 32.7812V47H59.5918V32.7812H62.043ZM67.1895 38.6895V47H64.8359V36.4336H67.0527L67.1895 38.6895ZM66.7695 41.3262L66.0078 41.3164C66.0143 40.5677 66.1185 39.8809 66.3203 39.2559C66.5286 38.6309 66.8151 38.0938 67.1797 37.6445C67.5508 37.1953 67.9935 36.8503 68.5078 36.6094C69.0221 36.362 69.5951 36.2383 70.2266 36.2383C70.7344 36.2383 71.1934 36.3099 71.6035 36.4531C72.0202 36.5898 72.375 36.8145 72.668 37.127C72.9674 37.4395 73.1953 37.8464 73.3516 38.3477C73.5078 38.8424 73.5859 39.4512 73.5859 40.1738V47H71.2227V40.1641C71.2227 39.6562 71.1478 39.2559 70.998 38.9629C70.8548 38.6634 70.6432 38.4518 70.3633 38.3281C70.0898 38.1979 69.748 38.1328 69.3379 38.1328C68.9342 38.1328 68.5729 38.2174 68.2539 38.3867C67.9349 38.556 67.6647 38.7871 67.4434 39.0801C67.2285 39.373 67.0625 39.7116 66.9453 40.0957C66.8281 40.4798 66.7695 40.89 66.7695 41.3262ZM80.3047 45.3203C80.6888 45.3203 81.0339 45.2454 81.3398 45.0957C81.6523 44.9395 81.903 44.7246 82.0918 44.4512C82.2871 44.1777 82.3945 43.862 82.4141 43.5039H84.6309C84.6178 44.1875 84.416 44.8092 84.0254 45.3691C83.6348 45.929 83.1172 46.375 82.4727 46.707C81.8281 47.0326 81.1152 47.1953 80.334 47.1953C79.5267 47.1953 78.8236 47.0586 78.2246 46.7852C77.6257 46.5052 77.1276 46.1211 76.7305 45.6328C76.3333 45.1445 76.0339 44.5814 75.832 43.9434C75.6367 43.3053 75.5391 42.6217 75.5391 41.8926V41.5508C75.5391 40.8216 75.6367 40.138 75.832 39.5C76.0339 38.8555 76.3333 38.2891 76.7305 37.8008C77.1276 37.3125 77.6257 36.9316 78.2246 36.6582C78.8236 36.3783 79.5234 36.2383 80.3242 36.2383C81.1706 36.2383 81.9128 36.4076 82.5508 36.7461C83.1888 37.0781 83.6901 37.5436 84.0547 38.1426C84.4258 38.735 84.6178 39.4251 84.6309 40.2129H82.4141C82.3945 39.8223 82.2969 39.4707 82.1211 39.1582C81.9518 38.8392 81.7109 38.5853 81.3984 38.3965C81.0924 38.2077 80.7246 38.1133 80.2949 38.1133C79.8197 38.1133 79.4258 38.2109 79.1133 38.4062C78.8008 38.5951 78.5566 38.8555 78.3809 39.1875C78.2051 39.513 78.0781 39.8809 78 40.291C77.9284 40.6947 77.8926 41.1146 77.8926 41.5508V41.8926C77.8926 42.3288 77.9284 42.752 78 43.1621C78.0716 43.5723 78.1953 43.9401 78.3711 44.2656C78.5534 44.5846 78.8008 44.8418 79.1133 45.0371C79.4258 45.2259 79.8229 45.3203 80.3047 45.3203ZM88.8008 38.4453V47H86.4473V36.4336H88.6934L88.8008 38.4453ZM92.0332 36.3652L92.0137 38.5527C91.8704 38.5267 91.7142 38.5072 91.5449 38.4941C91.3822 38.4811 91.2194 38.4746 91.0566 38.4746C90.653 38.4746 90.2982 38.5332 89.9922 38.6504C89.6862 38.7611 89.429 38.9238 89.2207 39.1387C89.0189 39.347 88.8626 39.6009 88.752 39.9004C88.6413 40.1999 88.5762 40.5352 88.5566 40.9062L88.0195 40.9453C88.0195 40.2812 88.0846 39.666 88.2148 39.0996C88.3451 38.5332 88.5404 38.0352 88.8008 37.6055C89.0677 37.1758 89.3997 36.8405 89.7969 36.5996C90.2005 36.3587 90.666 36.2383 91.1934 36.2383C91.3366 36.2383 91.4896 36.2513 91.6523 36.2773C91.8216 36.3034 91.9486 36.3327 92.0332 36.3652ZM97.9707 47.1953C97.1895 47.1953 96.4831 47.0684 95.8516 46.8145C95.2266 46.554 94.6927 46.1927 94.25 45.7305C93.8138 45.2682 93.4785 44.7246 93.2441 44.0996C93.0098 43.4746 92.8926 42.8008 92.8926 42.0781V41.6875C92.8926 40.8607 93.013 40.112 93.2539 39.4414C93.4948 38.7708 93.8301 38.1979 94.2598 37.7227C94.6895 37.2409 95.1973 36.873 95.7832 36.6191C96.3691 36.3652 97.0039 36.2383 97.6875 36.2383C98.4427 36.2383 99.1035 36.3652 99.6699 36.6191C100.236 36.873 100.705 37.2311 101.076 37.6934C101.454 38.1491 101.734 38.6927 101.916 39.3242C102.105 39.9557 102.199 40.6523 102.199 41.4141V42.4199H94.0352V40.7305H99.875V40.5449C99.862 40.1217 99.7773 39.7246 99.6211 39.3535C99.4714 38.9824 99.2402 38.6829 98.9277 38.4551C98.6152 38.2272 98.1986 38.1133 97.6777 38.1133C97.2871 38.1133 96.9388 38.1979 96.6328 38.3672C96.3333 38.5299 96.0827 38.7676 95.8809 39.0801C95.679 39.3926 95.5228 39.7702 95.4121 40.2129C95.3079 40.6491 95.2559 41.1406 95.2559 41.6875V42.0781C95.2559 42.5404 95.3177 42.9701 95.4414 43.3672C95.5716 43.7578 95.7604 44.0996 96.0078 44.3926C96.2552 44.6855 96.5547 44.9167 96.9062 45.0859C97.2578 45.2487 97.6582 45.3301 98.1074 45.3301C98.6738 45.3301 99.1784 45.2161 99.6211 44.9883C100.064 44.7604 100.448 44.4382 100.773 44.0215L102.014 45.2227C101.786 45.5547 101.49 45.8737 101.125 46.1797C100.76 46.4792 100.314 46.7233 99.7871 46.9121C99.2663 47.1009 98.6608 47.1953 97.9707 47.1953ZM109.992 44.8809V39.8418C109.992 39.4642 109.924 39.1387 109.787 38.8652C109.65 38.5918 109.442 38.3802 109.162 38.2305C108.889 38.0807 108.544 38.0059 108.127 38.0059C107.743 38.0059 107.411 38.071 107.131 38.2012C106.851 38.3314 106.633 38.5072 106.477 38.7285C106.32 38.9499 106.242 39.2005 106.242 39.4805H103.898C103.898 39.0638 103.999 38.6602 104.201 38.2695C104.403 37.8789 104.696 37.5306 105.08 37.2246C105.464 36.9186 105.923 36.6777 106.457 36.502C106.991 36.3262 107.59 36.2383 108.254 36.2383C109.048 36.2383 109.751 36.3717 110.363 36.6387C110.982 36.9056 111.467 37.3092 111.818 37.8496C112.176 38.3835 112.355 39.054 112.355 39.8613V44.5586C112.355 45.0404 112.388 45.4733 112.453 45.8574C112.525 46.235 112.626 46.5638 112.756 46.8438V47H110.344C110.233 46.7461 110.145 46.4238 110.08 46.0332C110.021 45.6361 109.992 45.252 109.992 44.8809ZM110.334 40.5742L110.354 42.0293H108.664C108.228 42.0293 107.844 42.0716 107.512 42.1562C107.18 42.2344 106.903 42.3516 106.682 42.5078C106.46 42.6641 106.294 42.8529 106.184 43.0742C106.073 43.2956 106.018 43.5462 106.018 43.8262C106.018 44.1061 106.083 44.3633 106.213 44.5977C106.343 44.8255 106.532 45.0046 106.779 45.1348C107.033 45.265 107.339 45.3301 107.697 45.3301C108.179 45.3301 108.599 45.2324 108.957 45.0371C109.322 44.8353 109.608 44.5911 109.816 44.3047C110.025 44.0117 110.135 43.735 110.148 43.4746L110.91 44.5195C110.832 44.7865 110.699 45.0729 110.51 45.3789C110.321 45.6849 110.074 45.9779 109.768 46.2578C109.468 46.5312 109.107 46.7559 108.684 46.9316C108.267 47.1074 107.785 47.1953 107.238 47.1953C106.548 47.1953 105.933 47.0586 105.393 46.7852C104.852 46.5052 104.429 46.1309 104.123 45.6621C103.817 45.1868 103.664 44.6497 103.664 44.0508C103.664 43.4909 103.768 42.9961 103.977 42.5664C104.191 42.1302 104.504 41.7656 104.914 41.4727C105.331 41.1797 105.839 40.9583 106.438 40.8086C107.036 40.6523 107.72 40.5742 108.488 40.5742H110.334ZM120.744 44.1387C120.744 43.9043 120.686 43.6927 120.568 43.5039C120.451 43.3086 120.227 43.1328 119.895 42.9766C119.569 42.8203 119.087 42.6771 118.449 42.5469C117.889 42.4232 117.375 42.2767 116.906 42.1074C116.444 41.9316 116.047 41.7201 115.715 41.4727C115.383 41.2253 115.126 40.9323 114.943 40.5938C114.761 40.2552 114.67 39.8646 114.67 39.4219C114.67 38.9922 114.764 38.5853 114.953 38.2012C115.142 37.8171 115.412 37.4785 115.764 37.1855C116.115 36.8926 116.542 36.6615 117.043 36.4922C117.551 36.3229 118.117 36.2383 118.742 36.2383C119.628 36.2383 120.386 36.388 121.018 36.6875C121.656 36.9805 122.144 37.3809 122.482 37.8887C122.821 38.39 122.99 38.9564 122.99 39.5879H120.637C120.637 39.3079 120.565 39.0475 120.422 38.8066C120.285 38.5592 120.077 38.3607 119.797 38.2109C119.517 38.0547 119.165 37.9766 118.742 37.9766C118.339 37.9766 118.003 38.0417 117.736 38.1719C117.476 38.2956 117.281 38.4583 117.15 38.6602C117.027 38.862 116.965 39.0833 116.965 39.3242C116.965 39.5 116.997 39.6595 117.062 39.8027C117.134 39.9395 117.251 40.0664 117.414 40.1836C117.577 40.2943 117.798 40.3984 118.078 40.4961C118.365 40.5938 118.723 40.6882 119.152 40.7793C119.96 40.9486 120.653 41.1667 121.232 41.4336C121.818 41.694 122.268 42.0326 122.58 42.4492C122.893 42.8594 123.049 43.3802 123.049 44.0117C123.049 44.4805 122.948 44.9102 122.746 45.3008C122.551 45.6849 122.264 46.0202 121.887 46.3066C121.509 46.5866 121.057 46.8047 120.529 46.9609C120.008 47.1172 119.423 47.1953 118.771 47.1953C117.814 47.1953 117.004 47.026 116.34 46.6875C115.676 46.3424 115.171 45.903 114.826 45.3691C114.488 44.8288 114.318 44.2689 114.318 43.6895H116.594C116.62 44.1257 116.74 44.474 116.955 44.7344C117.176 44.9883 117.45 45.1738 117.775 45.291C118.107 45.4017 118.449 45.457 118.801 45.457C119.224 45.457 119.579 45.4017 119.865 45.291C120.152 45.1738 120.37 45.0176 120.52 44.8223C120.669 44.6204 120.744 44.3926 120.744 44.1387ZM129.768 47.1953C128.986 47.1953 128.28 47.0684 127.648 46.8145C127.023 46.554 126.49 46.1927 126.047 45.7305C125.611 45.2682 125.275 44.7246 125.041 44.0996C124.807 43.4746 124.689 42.8008 124.689 42.0781V41.6875C124.689 40.8607 124.81 40.112 125.051 39.4414C125.292 38.7708 125.627 38.1979 126.057 37.7227C126.486 37.2409 126.994 36.873 127.58 36.6191C128.166 36.3652 128.801 36.2383 129.484 36.2383C130.24 36.2383 130.9 36.3652 131.467 36.6191C132.033 36.873 132.502 37.2311 132.873 37.6934C133.251 38.1491 133.531 38.6927 133.713 39.3242C133.902 39.9557 133.996 40.6523 133.996 41.4141V42.4199H125.832V40.7305H131.672V40.5449C131.659 40.1217 131.574 39.7246 131.418 39.3535C131.268 38.9824 131.037 38.6829 130.725 38.4551C130.412 38.2272 129.995 38.1133 129.475 38.1133C129.084 38.1133 128.736 38.1979 128.43 38.3672C128.13 38.5299 127.88 38.7676 127.678 39.0801C127.476 39.3926 127.32 39.7702 127.209 40.2129C127.105 40.6491 127.053 41.1406 127.053 41.6875V42.0781C127.053 42.5404 127.115 42.9701 127.238 43.3672C127.368 43.7578 127.557 44.0996 127.805 44.3926C128.052 44.6855 128.352 44.9167 128.703 45.0859C129.055 45.2487 129.455 45.3301 129.904 45.3301C130.471 45.3301 130.975 45.2161 131.418 44.9883C131.861 44.7604 132.245 44.4382 132.57 44.0215L133.811 45.2227C133.583 45.5547 133.286 45.8737 132.922 46.1797C132.557 46.4792 132.111 46.7233 131.584 46.9121C131.063 47.1009 130.458 47.1953 129.768 47.1953ZM141.76 44.1387C141.76 43.9043 141.701 43.6927 141.584 43.5039C141.467 43.3086 141.242 43.1328 140.91 42.9766C140.585 42.8203 140.103 42.6771 139.465 42.5469C138.905 42.4232 138.391 42.2767 137.922 42.1074C137.46 41.9316 137.062 41.7201 136.73 41.4727C136.398 41.2253 136.141 40.9323 135.959 40.5938C135.777 40.2552 135.686 39.8646 135.686 39.4219C135.686 38.9922 135.78 38.5853 135.969 38.2012C136.158 37.8171 136.428 37.4785 136.779 37.1855C137.131 36.8926 137.557 36.6615 138.059 36.4922C138.566 36.3229 139.133 36.2383 139.758 36.2383C140.643 36.2383 141.402 36.388 142.033 36.6875C142.671 36.9805 143.16 37.3809 143.498 37.8887C143.837 38.39 144.006 38.9564 144.006 39.5879H141.652C141.652 39.3079 141.581 39.0475 141.438 38.8066C141.301 38.5592 141.092 38.3607 140.812 38.2109C140.533 38.0547 140.181 37.9766 139.758 37.9766C139.354 37.9766 139.019 38.0417 138.752 38.1719C138.492 38.2956 138.296 38.4583 138.166 38.6602C138.042 38.862 137.98 39.0833 137.98 39.3242C137.98 39.5 138.013 39.6595 138.078 39.8027C138.15 39.9395 138.267 40.0664 138.43 40.1836C138.592 40.2943 138.814 40.3984 139.094 40.4961C139.38 40.5938 139.738 40.6882 140.168 40.7793C140.975 40.9486 141.669 41.1667 142.248 41.4336C142.834 41.694 143.283 42.0326 143.596 42.4492C143.908 42.8594 144.064 43.3802 144.064 44.0117C144.064 44.4805 143.964 44.9102 143.762 45.3008C143.566 45.6849 143.28 46.0202 142.902 46.3066C142.525 46.5866 142.072 46.8047 141.545 46.9609C141.024 47.1172 140.438 47.1953 139.787 47.1953C138.83 47.1953 138.02 47.026 137.355 46.6875C136.691 46.3424 136.187 45.903 135.842 45.3691C135.503 44.8288 135.334 44.2689 135.334 43.6895H137.609C137.635 44.1257 137.756 44.474 137.971 44.7344C138.192 44.9883 138.465 45.1738 138.791 45.291C139.123 45.4017 139.465 45.457 139.816 45.457C140.24 45.457 140.594 45.4017 140.881 45.291C141.167 45.1738 141.385 45.0176 141.535 44.8223C141.685 44.6204 141.76 44.3926 141.76 44.1387ZM153.469 38.4453V47H151.115V36.4336H153.361L153.469 38.4453ZM156.701 36.3652L156.682 38.5527C156.538 38.5267 156.382 38.5072 156.213 38.4941C156.05 38.4811 155.887 38.4746 155.725 38.4746C155.321 38.4746 154.966 38.5332 154.66 38.6504C154.354 38.7611 154.097 38.9238 153.889 39.1387C153.687 39.347 153.531 39.6009 153.42 39.9004C153.309 40.1999 153.244 40.5352 153.225 40.9062L152.688 40.9453C152.688 40.2812 152.753 39.666 152.883 39.0996C153.013 38.5332 153.208 38.0352 153.469 37.6055C153.736 37.1758 154.068 36.8405 154.465 36.5996C154.868 36.3587 155.334 36.2383 155.861 36.2383C156.005 36.2383 156.158 36.2513 156.32 36.2773C156.49 36.3034 156.617 36.3327 156.701 36.3652ZM162.639 47.1953C161.857 47.1953 161.151 47.0684 160.52 46.8145C159.895 46.554 159.361 46.1927 158.918 45.7305C158.482 45.2682 158.146 44.7246 157.912 44.0996C157.678 43.4746 157.561 42.8008 157.561 42.0781V41.6875C157.561 40.8607 157.681 40.112 157.922 39.4414C158.163 38.7708 158.498 38.1979 158.928 37.7227C159.357 37.2409 159.865 36.873 160.451 36.6191C161.037 36.3652 161.672 36.2383 162.355 36.2383C163.111 36.2383 163.771 36.3652 164.338 36.6191C164.904 36.873 165.373 37.2311 165.744 37.6934C166.122 38.1491 166.402 38.6927 166.584 39.3242C166.773 39.9557 166.867 40.6523 166.867 41.4141V42.4199H158.703V40.7305H164.543V40.5449C164.53 40.1217 164.445 39.7246 164.289 39.3535C164.139 38.9824 163.908 38.6829 163.596 38.4551C163.283 38.2272 162.867 38.1133 162.346 38.1133C161.955 38.1133 161.607 38.1979 161.301 38.3672C161.001 38.5299 160.751 38.7676 160.549 39.0801C160.347 39.3926 160.191 39.7702 160.08 40.2129C159.976 40.6491 159.924 41.1406 159.924 41.6875V42.0781C159.924 42.5404 159.986 42.9701 160.109 43.3672C160.24 43.7578 160.428 44.0996 160.676 44.3926C160.923 44.6855 161.223 44.9167 161.574 45.0859C161.926 45.2487 162.326 45.3301 162.775 45.3301C163.342 45.3301 163.846 45.2161 164.289 44.9883C164.732 44.7604 165.116 44.4382 165.441 44.0215L166.682 45.2227C166.454 45.5547 166.158 45.8737 165.793 46.1797C165.428 46.4792 164.982 46.7233 164.455 46.9121C163.934 47.1009 163.329 47.1953 162.639 47.1953ZM174.631 44.1387C174.631 43.9043 174.572 43.6927 174.455 43.5039C174.338 43.3086 174.113 43.1328 173.781 42.9766C173.456 42.8203 172.974 42.6771 172.336 42.5469C171.776 42.4232 171.262 42.2767 170.793 42.1074C170.331 41.9316 169.934 41.7201 169.602 41.4727C169.27 41.2253 169.012 40.9323 168.83 40.5938C168.648 40.2552 168.557 39.8646 168.557 39.4219C168.557 38.9922 168.651 38.5853 168.84 38.2012C169.029 37.8171 169.299 37.4785 169.65 37.1855C170.002 36.8926 170.428 36.6615 170.93 36.4922C171.438 36.3229 172.004 36.2383 172.629 36.2383C173.514 36.2383 174.273 36.388 174.904 36.6875C175.542 36.9805 176.031 37.3809 176.369 37.8887C176.708 38.39 176.877 38.9564 176.877 39.5879H174.523C174.523 39.3079 174.452 39.0475 174.309 38.8066C174.172 38.5592 173.964 38.3607 173.684 38.2109C173.404 38.0547 173.052 37.9766 172.629 37.9766C172.225 37.9766 171.89 38.0417 171.623 38.1719C171.363 38.2956 171.167 38.4583 171.037 38.6602C170.913 38.862 170.852 39.0833 170.852 39.3242C170.852 39.5 170.884 39.6595 170.949 39.8027C171.021 39.9395 171.138 40.0664 171.301 40.1836C171.464 40.2943 171.685 40.3984 171.965 40.4961C172.251 40.5938 172.609 40.6882 173.039 40.7793C173.846 40.9486 174.54 41.1667 175.119 41.4336C175.705 41.694 176.154 42.0326 176.467 42.4492C176.779 42.8594 176.936 43.3802 176.936 44.0117C176.936 44.4805 176.835 44.9102 176.633 45.3008C176.438 45.6849 176.151 46.0202 175.773 46.3066C175.396 46.5866 174.943 46.8047 174.416 46.9609C173.895 47.1172 173.309 47.1953 172.658 47.1953C171.701 47.1953 170.891 47.026 170.227 46.6875C169.562 46.3424 169.058 45.903 168.713 45.3691C168.374 44.8288 168.205 44.2689 168.205 43.6895H170.48C170.507 44.1257 170.627 44.474 170.842 44.7344C171.063 44.9883 171.337 45.1738 171.662 45.291C171.994 45.4017 172.336 45.457 172.688 45.457C173.111 45.457 173.465 45.4017 173.752 45.291C174.038 45.1738 174.257 45.0176 174.406 44.8223C174.556 44.6204 174.631 44.3926 174.631 44.1387ZM181.516 36.4336V47H179.152V36.4336H181.516ZM178.996 33.6602C178.996 33.3021 179.113 33.0059 179.348 32.7715C179.589 32.5306 179.921 32.4102 180.344 32.4102C180.76 32.4102 181.089 32.5306 181.33 32.7715C181.571 33.0059 181.691 33.3021 181.691 33.6602C181.691 34.0117 181.571 34.3047 181.33 34.5391C181.089 34.7734 180.76 34.8906 180.344 34.8906C179.921 34.8906 179.589 34.7734 179.348 34.5391C179.113 34.3047 178.996 34.0117 178.996 33.6602ZM190.021 44.1387C190.021 43.9043 189.963 43.6927 189.846 43.5039C189.729 43.3086 189.504 43.1328 189.172 42.9766C188.846 42.8203 188.365 42.6771 187.727 42.5469C187.167 42.4232 186.652 42.2767 186.184 42.1074C185.721 41.9316 185.324 41.7201 184.992 41.4727C184.66 41.2253 184.403 40.9323 184.221 40.5938C184.038 40.2552 183.947 39.8646 183.947 39.4219C183.947 38.9922 184.042 38.5853 184.23 38.2012C184.419 37.8171 184.689 37.4785 185.041 37.1855C185.393 36.8926 185.819 36.6615 186.32 36.4922C186.828 36.3229 187.395 36.2383 188.02 36.2383C188.905 36.2383 189.663 36.388 190.295 36.6875C190.933 36.9805 191.421 37.3809 191.76 37.8887C192.098 38.39 192.268 38.9564 192.268 39.5879H189.914C189.914 39.3079 189.842 39.0475 189.699 38.8066C189.562 38.5592 189.354 38.3607 189.074 38.2109C188.794 38.0547 188.443 37.9766 188.02 37.9766C187.616 37.9766 187.281 38.0417 187.014 38.1719C186.753 38.2956 186.558 38.4583 186.428 38.6602C186.304 38.862 186.242 39.0833 186.242 39.3242C186.242 39.5 186.275 39.6595 186.34 39.8027C186.411 39.9395 186.529 40.0664 186.691 40.1836C186.854 40.2943 187.076 40.3984 187.355 40.4961C187.642 40.5938 188 40.6882 188.43 40.7793C189.237 40.9486 189.93 41.1667 190.51 41.4336C191.096 41.694 191.545 42.0326 191.857 42.4492C192.17 42.8594 192.326 43.3802 192.326 44.0117C192.326 44.4805 192.225 44.9102 192.023 45.3008C191.828 45.6849 191.542 46.0202 191.164 46.3066C190.786 46.5866 190.334 46.8047 189.807 46.9609C189.286 47.1172 188.7 47.1953 188.049 47.1953C187.092 47.1953 186.281 47.026 185.617 46.6875C184.953 46.3424 184.449 45.903 184.104 45.3691C183.765 44.8288 183.596 44.2689 183.596 43.6895H185.871C185.897 44.1257 186.018 44.474 186.232 44.7344C186.454 44.9883 186.727 45.1738 187.053 45.291C187.385 45.4017 187.727 45.457 188.078 45.457C188.501 45.457 188.856 45.4017 189.143 45.291C189.429 45.1738 189.647 45.0176 189.797 44.8223C189.947 44.6204 190.021 44.3926 190.021 44.1387ZM199.23 36.4336V38.1523H193.273V36.4336H199.23ZM194.992 33.8457H197.346V44.0801C197.346 44.4056 197.391 44.6562 197.482 44.832C197.58 45.0013 197.714 45.1152 197.883 45.1738C198.052 45.2324 198.251 45.2617 198.479 45.2617C198.641 45.2617 198.798 45.252 198.947 45.2324C199.097 45.2129 199.217 45.1934 199.309 45.1738L199.318 46.9707C199.123 47.0293 198.895 47.0814 198.635 47.127C198.381 47.1725 198.088 47.1953 197.756 47.1953C197.215 47.1953 196.737 47.1009 196.32 46.9121C195.904 46.7168 195.578 46.401 195.344 45.9648C195.109 45.5286 194.992 44.9492 194.992 44.2266V33.8457ZM207.004 44.8809V39.8418C207.004 39.4642 206.936 39.1387 206.799 38.8652C206.662 38.5918 206.454 38.3802 206.174 38.2305C205.9 38.0807 205.555 38.0059 205.139 38.0059C204.755 38.0059 204.423 38.071 204.143 38.2012C203.863 38.3314 203.645 38.5072 203.488 38.7285C203.332 38.9499 203.254 39.2005 203.254 39.4805H200.91C200.91 39.0638 201.011 38.6602 201.213 38.2695C201.415 37.8789 201.708 37.5306 202.092 37.2246C202.476 36.9186 202.935 36.6777 203.469 36.502C204.003 36.3262 204.602 36.2383 205.266 36.2383C206.06 36.2383 206.763 36.3717 207.375 36.6387C207.993 36.9056 208.479 37.3092 208.83 37.8496C209.188 38.3835 209.367 39.054 209.367 39.8613V44.5586C209.367 45.0404 209.4 45.4733 209.465 45.8574C209.536 46.235 209.637 46.5638 209.768 46.8438V47H207.355C207.245 46.7461 207.157 46.4238 207.092 46.0332C207.033 45.6361 207.004 45.252 207.004 44.8809ZM207.346 40.5742L207.365 42.0293H205.676C205.24 42.0293 204.855 42.0716 204.523 42.1562C204.191 42.2344 203.915 42.3516 203.693 42.5078C203.472 42.6641 203.306 42.8529 203.195 43.0742C203.085 43.2956 203.029 43.5462 203.029 43.8262C203.029 44.1061 203.094 44.3633 203.225 44.5977C203.355 44.8255 203.544 45.0046 203.791 45.1348C204.045 45.265 204.351 45.3301 204.709 45.3301C205.191 45.3301 205.611 45.2324 205.969 45.0371C206.333 44.8353 206.62 44.5911 206.828 44.3047C207.036 44.0117 207.147 43.735 207.16 43.4746L207.922 44.5195C207.844 44.7865 207.71 45.0729 207.521 45.3789C207.333 45.6849 207.085 45.9779 206.779 46.2578C206.48 46.5312 206.118 46.7559 205.695 46.9316C205.279 47.1074 204.797 47.1953 204.25 47.1953C203.56 47.1953 202.945 47.0586 202.404 46.7852C201.864 46.5052 201.441 46.1309 201.135 45.6621C200.829 45.1868 200.676 44.6497 200.676 44.0508C200.676 43.4909 200.78 42.9961 200.988 42.5664C201.203 42.1302 201.516 41.7656 201.926 41.4727C202.342 41.1797 202.85 40.9583 203.449 40.8086C204.048 40.6523 204.732 40.5742 205.5 40.5742H207.346ZM214.162 38.6895V47H211.809V36.4336H214.025L214.162 38.6895ZM213.742 41.3262L212.98 41.3164C212.987 40.5677 213.091 39.8809 213.293 39.2559C213.501 38.6309 213.788 38.0938 214.152 37.6445C214.523 37.1953 214.966 36.8503 215.48 36.6094C215.995 36.362 216.568 36.2383 217.199 36.2383C217.707 36.2383 218.166 36.3099 218.576 36.4531C218.993 36.5898 219.348 36.8145 219.641 37.127C219.94 37.4395 220.168 37.8464 220.324 38.3477C220.48 38.8424 220.559 39.4512 220.559 40.1738V47H218.195V40.1641C218.195 39.6562 218.12 39.2559 217.971 38.9629C217.827 38.6634 217.616 38.4518 217.336 38.3281C217.062 38.1979 216.721 38.1328 216.311 38.1328C215.907 38.1328 215.546 38.2174 215.227 38.3867C214.908 38.556 214.637 38.7871 214.416 39.0801C214.201 39.373 214.035 39.7116 213.918 40.0957C213.801 40.4798 213.742 40.89 213.742 41.3262ZM227.277 45.3203C227.661 45.3203 228.007 45.2454 228.312 45.0957C228.625 44.9395 228.876 44.7246 229.064 44.4512C229.26 44.1777 229.367 43.862 229.387 43.5039H231.604C231.59 44.1875 231.389 44.8092 230.998 45.3691C230.607 45.929 230.09 46.375 229.445 46.707C228.801 47.0326 228.088 47.1953 227.307 47.1953C226.499 47.1953 225.796 47.0586 225.197 46.7852C224.598 46.5052 224.1 46.1211 223.703 45.6328C223.306 45.1445 223.007 44.5814 222.805 43.9434C222.609 43.3053 222.512 42.6217 222.512 41.8926V41.5508C222.512 40.8216 222.609 40.138 222.805 39.5C223.007 38.8555 223.306 38.2891 223.703 37.8008C224.1 37.3125 224.598 36.9316 225.197 36.6582C225.796 36.3783 226.496 36.2383 227.297 36.2383C228.143 36.2383 228.885 36.4076 229.523 36.7461C230.161 37.0781 230.663 37.5436 231.027 38.1426C231.398 38.735 231.59 39.4251 231.604 40.2129H229.387C229.367 39.8223 229.27 39.4707 229.094 39.1582C228.924 38.8392 228.684 38.5853 228.371 38.3965C228.065 38.2077 227.697 38.1133 227.268 38.1133C226.792 38.1133 226.398 38.2109 226.086 38.4062C225.773 38.5951 225.529 38.8555 225.354 39.1875C225.178 39.513 225.051 39.8809 224.973 40.291C224.901 40.6947 224.865 41.1146 224.865 41.5508V41.8926C224.865 42.3288 224.901 42.752 224.973 43.1621C225.044 43.5723 225.168 43.9401 225.344 44.2656C225.526 44.5846 225.773 44.8418 226.086 45.0371C226.398 45.2259 226.796 45.3203 227.277 45.3203ZM238.068 47.1953C237.287 47.1953 236.581 47.0684 235.949 46.8145C235.324 46.554 234.79 46.1927 234.348 45.7305C233.911 45.2682 233.576 44.7246 233.342 44.0996C233.107 43.4746 232.99 42.8008 232.99 42.0781V41.6875C232.99 40.8607 233.111 40.112 233.352 39.4414C233.592 38.7708 233.928 38.1979 234.357 37.7227C234.787 37.2409 235.295 36.873 235.881 36.6191C236.467 36.3652 237.102 36.2383 237.785 36.2383C238.54 36.2383 239.201 36.3652 239.768 36.6191C240.334 36.873 240.803 37.2311 241.174 37.6934C241.551 38.1491 241.831 38.6927 242.014 39.3242C242.202 39.9557 242.297 40.6523 242.297 41.4141V42.4199H234.133V40.7305H239.973V40.5449C239.96 40.1217 239.875 39.7246 239.719 39.3535C239.569 38.9824 239.338 38.6829 239.025 38.4551C238.713 38.2272 238.296 38.1133 237.775 38.1133C237.385 38.1133 237.036 38.1979 236.73 38.3672C236.431 38.5299 236.18 38.7676 235.979 39.0801C235.777 39.3926 235.62 39.7702 235.51 40.2129C235.406 40.6491 235.354 41.1406 235.354 41.6875V42.0781C235.354 42.5404 235.415 42.9701 235.539 43.3672C235.669 43.7578 235.858 44.0996 236.105 44.3926C236.353 44.6855 236.652 44.9167 237.004 45.0859C237.355 45.2487 237.756 45.3301 238.205 45.3301C238.771 45.3301 239.276 45.2161 239.719 44.9883C240.161 44.7604 240.546 44.4382 240.871 44.0215L242.111 45.2227C241.883 45.5547 241.587 45.8737 241.223 46.1797C240.858 46.4792 240.412 46.7233 239.885 46.9121C239.364 47.1009 238.758 47.1953 238.068 47.1953Z" fill="#274C5B"/>
</svg>
